<svg fill="none" height="14" viewBox="0 0 104 14" width="104" xmlns="http://www.w3.org/2000/svg"><path d="m14.426.364v12.636h-3.078v-7.578l-2.826 7.578h-2.484l-2.844-7.596v7.596h-3.078v-12.636h3.636l3.546 8.748 3.51-8.748zm12.2394 10.404h-4.716l-.756 2.232h-3.222l4.572-12.636h3.564l4.572 12.636h-3.258zm-.792-2.376-1.566-4.626-1.548 4.626zm11.3815-8.028v7.56c0 .756.186 1.338.558 1.746s.918.612 1.638.612 1.272-.204 1.656-.612.576-.99.576-1.746v-7.56h3.078v7.542c0 1.128-.24 2.082-.72 2.862s-1.128 1.368-1.944 1.764c-.804.396-1.704.594-2.7.594s-1.89-.192-2.682-.576c-.78-.396-1.398-.984-1.854-1.764-.456-.792-.684-1.752-.684-2.88v-7.542zm18.2714 12.636-2.628-4.77h-.738v4.77h-3.078v-12.636h5.166c.996 0 1.842.174 2.538.521999.708.348001 1.236.828001 1.584 1.440001.348.6.522 1.272.522 2.016 0 .84-.24 1.59-.72 2.25-.468.66-1.164 1.128-2.088 1.404l2.916 5.004zm-3.366-6.948h1.908c.564 0 .984-.138 1.26-.414.288-.276.432-.666.432-1.17 0-.48-.144-.858-.432-1.134-.276-.276-.696-.414-1.26-.414h-1.908zm13.9022-5.688v12.636h-3.078v-12.636zm7.6666 10.116h5.436v2.52h-8.928v-2.34l5.4-7.776h-5.4v-2.52h8.928v2.34zm12.6847-10.116v12.636h-3.078v-12.636zm10.3666 12.762c-1.188 0-2.28-.276-3.276-.828-.984-.552-1.77-1.32-2.358-2.304-.576-.996-.864-2.112-.864-3.348s.288-2.346.864-3.33c.588-.984 1.374-1.752 2.358-2.304.996-.552 2.088-.828 3.276-.828s2.274.276 3.2576.828c.996.552 1.776 1.32 2.34 2.304.576.984.864 2.094.864 3.33s-.288 2.352-.864 3.348c-.576.984-1.356 1.752-2.34 2.304-.9836.552-2.0696.828-3.2576.828zm0-2.808c1.008 0 1.812-.336 2.412-1.008.612-.672.9176-1.56.9176-2.664 0-1.116-.3056-2.004-.9176-2.664-.6-.672-1.404-1.008-2.412-1.008-1.02 0-1.836.33-2.448.99-.6.66-.9 1.554-.9 2.682 0 1.116.3 2.01.9 2.682.612.66 1.428.99 2.448.99z" fill="#082032"/></svg>