<svg width="104" height="14" viewBox="0 0 104 14" fill="none" xmlns="http://www.w3.org/2000/svg">
<path d="M14.426 0.364V13H11.348V5.422L8.522 13H6.038L3.194 5.404V13H0.116V0.364H3.752L7.298 9.112L10.808 0.364H14.426ZM26.6654 10.768H21.9494L21.1934 13H17.9714L22.5434 0.364H26.1074L30.6794 13H27.4214L26.6654 10.768ZM25.8734 8.392L24.3074 3.766L22.7594 8.392H25.8734ZM37.2549 0.364V7.924C37.2549 8.68 37.4409 9.262 37.8129 9.67C38.1849 10.078 38.7309 10.282 39.4509 10.282C40.1709 10.282 40.7229 10.078 41.1069 9.67C41.4909 9.262 41.6829 8.68 41.6829 7.924V0.364H44.7609V7.906C44.7609 9.034 44.5209 9.988 44.0409 10.768C43.5609 11.548 42.9129 12.136 42.0969 12.532C41.2929 12.928 40.3929 13.126 39.3969 13.126C38.4009 13.126 37.5069 12.934 36.7149 12.55C35.9349 12.154 35.3169 11.566 34.8609 10.786C34.4049 9.994 34.1769 9.034 34.1769 7.906V0.364H37.2549ZM55.5263 13L52.8983 8.23H52.1603V13H49.0823V0.364H54.2483C55.2443 0.364 56.0903 0.538 56.7863 0.885999C57.4943 1.234 58.0223 1.714 58.3703 2.326C58.7183 2.926 58.8923 3.598 58.8923 4.342C58.8923 5.182 58.6523 5.932 58.1723 6.592C57.7043 7.252 57.0083 7.72 56.0843 7.996L59.0003 13H55.5263ZM52.1603 6.052H54.0683C54.6323 6.052 55.0523 5.914 55.3283 5.638C55.6163 5.362 55.7603 4.972 55.7603 4.468C55.7603 3.988 55.6163 3.61 55.3283 3.334C55.0523 3.058 54.6323 2.92 54.0683 2.92H52.1603V6.052ZM66.0625 0.364V13H62.9845V0.364H66.0625ZM73.7291 10.48H79.1651V13H70.2371V10.66L75.6371 2.884H70.2371V0.364H79.1651V2.704L73.7291 10.48ZM86.4138 0.364V13H83.3358V0.364H86.4138ZM96.7804 13.126C95.5924 13.126 94.5004 12.85 93.5044 12.298C92.5204 11.746 91.7344 10.978 91.1464 9.994C90.5704 8.998 90.2824 7.882 90.2824 6.646C90.2824 5.41 90.5704 4.3 91.1464 3.316C91.7344 2.332 92.5204 1.564 93.5044 1.012C94.5004 0.46 95.5924 0.184 96.7804 0.184C97.9684 0.184 99.0544 0.46 100.038 1.012C101.034 1.564 101.814 2.332 102.378 3.316C102.954 4.3 103.242 5.41 103.242 6.646C103.242 7.882 102.954 8.998 102.378 9.994C101.802 10.978 101.022 11.746 100.038 12.298C99.0544 12.85 97.9684 13.126 96.7804 13.126ZM96.7804 10.318C97.7884 10.318 98.5924 9.982 99.1924 9.31C99.8044 8.638 100.11 7.75 100.11 6.646C100.11 5.53 99.8044 4.642 99.1924 3.982C98.5924 3.31 97.7884 2.974 96.7804 2.974C95.7604 2.974 94.9444 3.304 94.3324 3.964C93.7324 4.624 93.4324 5.518 93.4324 6.646C93.4324 7.762 93.7324 8.656 94.3324 9.328C94.9444 9.988 95.7604 10.318 96.7804 10.318Z" fill="white"/>
</svg>
